<svg xmlns="http://www.w3.org/2000/svg" width="500" height="500"><path fill="#FEFEFE" d="m296 3 3.077.602C335.584 10.905 370.321 25.323 400 48l1.703 1.275C411.413 56.549 420.266 64.589 429 73l2.406 2.281c4.839 4.685 9.111 9.763 13.277 15.051a503 503 0 0 0 2.79 3.5c23.601 29.387 39.799 63.808 48.277 100.48l.602 2.601c2.679 12.11 3.962 24.03 3.984 36.427l.02 4.012q.017 4.179.015 8.357 0 4.205.04 8.408c.367 38.054-7.303 75.246-25.42 109.023a312 312 0 0 0-2.92 5.65C457.175 397.881 434.828 425.006 409 445q-1.88 1.507-3.758 3.016C373.438 473.274 335.71 489.256 296 497l-2.507.505c-27.575 5.3-59.991 5.075-87.493-.505l-3.077-.602C166.416 489.095 131.679 474.677 102 452l-1.703-1.275C90.587 443.451 81.734 435.411 73 427l-2.406-2.281c-4.839-4.685-9.111-9.763-13.277-15.051a503 503 0 0 0-2.79-3.5C28.511 373.775 11.928 335.658 4 295l-.505-2.507C-1.805 264.918-1.58 232.502 4 205l.602-3.077C11.905 165.416 26.323 130.679 49 101l1.275-1.703C57.549 89.587 65.589 80.734 74 72l2.281-2.406c4.685-4.839 9.763-9.111 15.051-13.277a503 503 0 0 0 3.5-2.79C127.225 27.511 165.342 10.928 206 3l2.507-.505C236.082-2.805 268.498-2.58 296 3"/><path fill="#242424" d="M219 130h48l1 113c8.693-11.409 17.277-22.704 25.61-34.344 4.627-6.408 9.454-12.666 14.275-18.93l1.974-2.57 1.765-2.287c1.424-1.823 1.424-1.823 2.376-3.869h60c-3.794 5.059-7.538 9.896-11.687 14.625A332 332 0 0 0 350.5 210c-4.12 5.314-8.4 10.45-12.802 15.532-6.373 7.373-12.527 14.926-18.698 22.468l-2.887 3.523Q313.053 255.26 310 259c4.863 6.704 10.16 12.995 15.536 19.286 2.37 2.774 4.73 5.555 7.089 8.339l1.392 1.642a673 673 0 0 1 8.42 10.17c3.42 4.2 6.908 8.332 10.438 12.438l4.593 5.343q3.744 4.352 7.47 8.72l2.59 3.027a125 125 0 0 1 5.127 6.725l1.338 1.885L375 338a870 870 0 0 1-22.847.829c-3.541.083-7.076.195-10.613.378-22.763 1.146-22.763 1.146-28.966-2.718-3.832-3.602-6.301-7.734-8.547-12.451-1.637-3.248-3.784-6.006-5.964-8.913a690 690 0 0 1-2.438-3.434c-3-4.225-6.03-8.428-9.062-12.628l-1.483-2.057c-5.32-7.365-10.706-14.678-16.08-22.006l-1 63h-49z"/><path fill="#232323" d="M171.438 194.313c9.865 9.574 14.759 20.37 17.562 33.687v4h-45l-2-7c-2.878-4.76-6.652-7.577-12-9-2.877-.345-5.729-.456-8.625-.5l-2.208-.056c-5.137.06-8.1 1.186-12.167 4.556-2.34 3.509-2.413 4.87-2 9 1.778 4.666 4.488 5.982 8.748 8.034 3.579 1.535 7.24 2.539 11.002 3.517l5.035 1.369q3.891 1.043 7.785 2.072c8.953 2.38 17.738 4.865 26.262 8.531l1.91.81c9.384 4.237 17.41 11.74 21.434 21.284 4.11 11.882 4.461 23.689-.649 35.352-6.808 13.513-17.076 21.156-31.324 26.035L152 337l-2.828.965c-21.51 6.24-46.316 2.719-65.738-7.953-4.106-2.406-7.882-4.845-11.434-8.012l-1.816-1.574C60.194 311.169 55.474 299.266 54 286h48l4 10c2.243 2.512 2.243 2.512 5 4l2.633 1.574c4.142 1.754 7.427 1.871 11.867 1.801l2.223.035c6.024-.032 10.23-1.417 14.652-5.723 2.324-3.844 1.854-6.622 1.375-10.937-1.044-2.436-2.362-2.687-4.75-3.75-3.008-1.159-6.068-2.165-9.125-3.187l-2.758-.926c-8.531-2.803-17.171-5.133-25.881-7.314C86.378 267.757 72.983 262.02 64 249c-5.177-10.292-6.783-21.406-4.129-32.71C62.363 208.755 65.528 202.75 71 197c.55-.6 1.098-1.201 1.664-1.82 24.533-24.101 73.405-22.525 98.774-.868"/><path fill="#FF9802" d="M431.883 291.383C437.605 295.753 442.017 301 444 308c1.062 8.41-.066 15.028-5 22-6.064 6.812-13.55 9.497-22.504 10.195-8.863.37-14.892-1.895-21.808-7.382-5.773-5.439-7.877-10.997-8.125-18.875.275-7.225 1.915-13.069 6.847-18.555 10.13-8.811 26.805-10.954 38.473-4"/></svg>