<svg version="1.1" xmlns="http://www.w3.org/2000/svg" width="500" height="500">
    <path d="M0 0 C1.01545898 0.19867676 2.03091797 0.39735352 3.07714844 0.60205078 C39.58415348 7.9045458 74.32069684 22.32337931 104 45 C104.56203125 45.42071777 105.1240625 45.84143555 105.703125 46.27490234 C115.41352014 53.54949735 124.26645485 61.58912278 133 70 C133.7940625 70.7528125 134.588125 71.505625 135.40625 72.28125 C140.24456554 76.96596822 144.51709501 82.044382 148.68261719 87.33203125 C149.60749076 88.503035 150.53837139 89.6693073 151.47363281 90.83203125 C175.07434811 120.21882335 191.27157934 154.6400916 199.75 191.3125 C199.94875732 192.17077393 200.14751465 193.02904785 200.35229492 193.91333008 C203.030954 206.02298173 204.31357088 217.94241315 204.3359375 230.33984375 C204.34240113 231.67721177 204.34913177 233.01457853 204.35610962 234.35194397 C204.36797141 237.13773864 204.37180248 239.92341045 204.37060547 242.70922852 C204.37044375 245.51222776 204.38421765 248.3145676 204.41162109 251.11743164 C204.77779555 289.17064865 197.10801442 326.36285677 178.99121094 360.13964844 C177.99388379 362.01147919 177.02931332 363.89734819 176.0703125 365.7890625 C161.17630304 394.88232807 138.82934639 422.00741501 113 442 C111.74679627 443.00446075 110.49423721 444.00972614 109.2421875 445.015625 C77.43786923 470.27422364 39.71012017 486.25546857 0 494 C-1.24088379 494.24991699 -1.24088379 494.24991699 -2.50683594 494.50488281 C-30.08218506 499.80488028 -62.49800884 499.57960557 -90 494 C-91.01545898 493.80132324 -92.03091797 493.60264648 -93.07714844 493.39794922 C-129.58415348 486.0954542 -164.32069684 471.67662069 -194 449 C-194.56203125 448.57928223 -195.1240625 448.15856445 -195.703125 447.72509766 C-205.41352014 440.45050265 -214.26645485 432.41087722 -223 424 C-223.7940625 423.2471875 -224.588125 422.494375 -225.40625 421.71875 C-230.24456554 417.03403178 -234.51709501 411.955618 -238.68261719 406.66796875 C-239.60749076 405.496965 -240.53837139 404.3306927 -241.47363281 403.16796875 C-267.48824019 370.77548196 -284.07074466 332.65729288 -292 292 C-292.16661133 291.17274414 -292.33322266 290.34548828 -292.50488281 289.49316406 C-297.80488028 261.91781494 -297.57960557 229.50199116 -292 202 C-291.80132324 200.98454102 -291.60264648 199.96908203 -291.39794922 198.92285156 C-284.0954542 162.41584652 -269.67662069 127.67930316 -247 98 C-246.57928223 97.43796875 -246.15856445 96.8759375 -245.72509766 96.296875 C-238.45050265 86.58647986 -230.41087722 77.73354515 -222 69 C-221.2471875 68.2059375 -220.494375 67.411875 -219.71875 66.59375 C-215.03403178 61.75543446 -209.955618 57.48290499 -204.66796875 53.31738281 C-203.496965 52.39250924 -202.3306927 51.46162861 -201.16796875 50.52636719 C-168.77548196 24.51175981 -130.65729288 7.92925534 -90 0 C-89.17274414 -0.16661133 -88.34548828 -0.33322266 -87.49316406 -0.50488281 C-59.91781494 -5.80488028 -27.50199116 -5.57960557 0 0 Z " fill="#FEFEFE" transform="translate(296,3)"/>
    <path d="M0 0 C15.84 0 31.68 0 48 0 C48.33 37.29 48.66 74.58 49 113 C57.69253696 101.59104524 66.2773526 90.29595968 74.609375 78.65625 C79.23686688 72.24809478 84.06386813 65.98975961 88.88476562 59.7265625 C89.53638672 58.87835938 90.18800781 58.03015625 90.859375 57.15625 C91.44170898 56.40150391 92.02404297 55.64675781 92.62402344 54.86914062 C94.04794205 53.04586778 94.04794205 53.04586778 95 51 C114.8 51 134.6 51 155 51 C151.20591553 56.0587793 147.46194458 60.89552553 143.3125 65.625 C139.23875343 70.31844368 135.30447156 75.08594844 131.5 80 C127.38004675 85.31366055 123.09923853 90.45023186 118.69799805 95.5324707 C112.32523007 102.90537078 106.17102905 110.4582562 100 118 C99.03780382 119.17451472 98.07556737 120.34899646 97.11328125 121.5234375 C95.07386466 124.01427911 93.03590382 126.50628712 91 129 C95.86337425 135.70356992 101.15934802 141.99453785 106.53564453 148.28564453 C108.90531701 151.05987596 111.26633383 153.84140875 113.625 156.625 C114.08422852 157.16672852 114.54345703 157.70845703 115.01660156 158.26660156 C117.85959986 161.62835079 120.66087293 165.02049768 123.4375 168.4375 C126.85675688 172.63690818 130.34510408 176.76879454 133.875 180.875 C134.63103516 181.75478516 134.63103516 181.75478516 135.40234375 182.65234375 C136.42422446 183.84106212 137.44619731 185.02970129 138.46826172 186.21826172 C140.96314008 189.12033731 143.45452952 192.0252269 145.9375 194.9375 C146.79214844 195.93652344 147.64679688 196.93554688 148.52734375 197.96484375 C150.32833879 200.17554383 152.00992784 202.36854497 153.65454102 204.68969727 C154.09629166 205.31199722 154.5380423 205.93429718 154.99317932 206.57545471 C155.32543015 207.04555466 155.65768097 207.5156546 156 208 C148.38626582 208.37310407 140.77349112 208.65615467 133.15266037 208.82899475 C129.61180551 208.91203466 126.07725924 209.02424194 122.54003906 209.20703125 C99.77704769 210.35288068 99.77704769 210.35288068 93.57394409 206.4887085 C89.74151791 202.88651444 87.2726303 198.75538123 85.0274353 194.03779602 C83.3900762 190.79028852 81.24265703 188.03180044 79.0625 185.125 C78.24668926 183.98282625 77.43382574 182.838537 76.625 181.69140625 C73.62587197 177.46609626 70.5956858 173.26340168 67.5625 169.0625 C66.82882202 168.04470459 66.82882202 168.04470459 66.08032227 167.00634766 C60.76065083 159.64064875 55.3735201 152.32752741 50 145 C49.67 165.79 49.34 186.58 49 208 C32.83 208 16.66 208 0 208 C0 139.36 0 70.72 0 0 Z " fill="#242424" transform="translate(219,130)"/>
    <path d="M0 0 C9.86568186 9.57408535 14.7591198 20.37144407 17.5625 33.6875 C17.5625 35.0075 17.5625 36.3275 17.5625 37.6875 C2.7125 37.6875 -12.1375 37.6875 -27.4375 37.6875 C-28.0975 35.3775 -28.7575 33.0675 -29.4375 30.6875 C-32.31553338 25.92767557 -36.0890716 23.11019717 -41.4375 21.6875 C-44.31458671 21.34230773 -47.16634159 21.23115135 -50.0625 21.1875 C-50.79106201 21.16905029 -51.51962402 21.15060059 -52.27026367 21.1315918 C-57.40746819 21.19068047 -60.37141793 22.31741396 -64.4375 25.6875 C-66.77659307 29.1961396 -66.85041057 30.55839433 -66.4375 34.6875 C-64.65980765 39.35394242 -61.94908471 40.66989453 -57.68945312 42.72177124 C-54.11072558 44.25647464 -50.45011318 45.26003864 -46.6875 46.23828125 C-45.0090668 46.6944857 -43.330683 47.15087192 -41.65234375 47.60742188 C-39.05852966 48.30223697 -36.46373484 48.99306369 -33.86767578 49.67944336 C-24.91432569 52.05872118 -16.1290651 54.54480907 -7.60546875 58.2109375 C-6.97547974 58.47816116 -6.34549072 58.74538483 -5.69641113 59.02070618 C3.68843345 63.25770797 11.71437845 70.76100726 15.73828125 80.3046875 C19.84817048 92.18635778 20.19955883 103.99307763 15.08984375 115.65625 C8.28104985 129.16935502 -1.98606434 136.81254158 -16.234375 141.69140625 C-17.29140625 142.02011719 -18.3484375 142.34882813 -19.4375 142.6875 C-20.37078125 143.00589844 -21.3040625 143.32429687 -22.265625 143.65234375 C-43.77612668 149.89268982 -68.58135326 146.37124971 -88.00390625 135.69921875 C-92.10976203 133.29362634 -95.88579738 130.85478304 -99.4375 127.6875 C-100.03691406 127.16800781 -100.63632813 126.64851562 -101.25390625 126.11328125 C-111.24414788 116.85666427 -115.96344909 104.95395821 -117.4375 91.6875 C-101.5975 91.6875 -85.7575 91.6875 -69.4375 91.6875 C-68.1175 94.9875 -66.7975 98.2875 -65.4375 101.6875 C-63.19458588 104.1995439 -63.19458588 104.1995439 -60.4375 105.6875 C-59.56867188 106.20699219 -58.69984375 106.72648437 -57.8046875 107.26171875 C-53.66250198 109.01566041 -50.37760203 109.13273008 -45.9375 109.0625 C-45.20402344 109.07410156 -44.47054687 109.08570313 -43.71484375 109.09765625 C-37.69026971 109.06532401 -33.48390296 107.68005025 -29.0625 103.375 C-26.73813181 99.53085261 -27.20803021 96.75272815 -27.6875 92.4375 C-28.7315833 90.00130564 -30.04969516 89.75094726 -32.4375 88.6875 C-35.44568161 87.5287571 -38.50555728 86.52229574 -41.5625 85.5 C-42.47249756 85.19465332 -43.38249512 84.88930664 -44.32006836 84.57470703 C-52.85176864 81.77171088 -61.49163276 79.44148198 -70.20166016 77.26098633 C-85.05973697 73.44456387 -98.454324 67.70727196 -107.4375 54.6875 C-112.61475941 44.39592657 -114.22006901 33.28140386 -111.56640625 21.9765625 C-109.07439703 14.4433412 -105.90964002 8.4367104 -100.4375 2.6875 C-99.88835937 2.08679688 -99.33921875 1.48609375 -98.7734375 0.8671875 C-74.24000268 -23.2339401 -25.36895576 -21.65735891 0 0 Z " fill="#232323" transform="translate(171.4375,194.3125)"/>
    <path d="M0 0 C5.72187274 4.37058176 10.13418965 9.61837157 12.1171875 16.6171875 C13.17894219 25.02771626 12.05079375 31.64551721 7.1171875 38.6171875 C1.05365952 45.4296548 -6.43276864 48.11406395 -15.38671875 48.8125 C-24.2496903 49.1823041 -30.27894193 46.91684496 -37.1953125 41.4296875 C-42.96748067 35.99163685 -45.072262 30.43277151 -45.3203125 22.5546875 C-45.04492031 15.33023238 -43.40437711 9.48635208 -38.47265625 4 C-28.34242204 -4.81106366 -11.66763689 -6.95344016 0 0 Z " fill="#FF9802" transform="translate(431.8828125,291.3828125)"/>
</svg>
